<svg width="50" height="50" viewBox="0 0 50 50" fill="none" xmlns="http://www.w3.org/2000/svg">
<path d="M33.2773 9C37.9242 9 42 13.6346 42 19.7695C42 21.5654 41.6428 23.2524 41.0166 24.7334C38.8962 29.7477 34.0776 34.9094 29.7998 38.5381C28.8573 39.3376 27.905 39.9714 27.0977 40.3994C26.6941 40.6133 26.3386 40.7695 26.0479 40.8701C25.7419 40.9759 25.5649 41 25.5 41C25.4351 41 25.2582 40.976 24.9521 40.8701C24.6611 40.7694 24.3054 40.6126 23.9014 40.3984C23.0937 39.9702 22.1411 39.337 21.1982 38.5371C16.921 34.9088 12.1036 29.7472 9.9834 24.7334C9.35713 23.2524 9.00004 21.5655 9 19.7695C9 13.6346 13.0758 9 17.7227 9C20.4896 9.00017 23.0204 10.6079 24.6504 13.2344L25.5 14.6035L26.3496 13.2344C27.9796 10.6079 30.5104 9.00017 33.2773 9Z" fill="red" stroke="red" stroke-width="2"/>
</svg>
